# xmcd
#
# Track frame offsets:
#	187
#	14505
#	32492
#	54790
#	76657
#	94122
#	112625
#	135715
#	154397
#	168210
#	198487
#	221520
#
# Disc length: 3275 seconds
#
# Revision: 1
# Processed by: cddbd v1.5.1PL0 Copyright (c) Steve Scherf et al.
# Submitted via: CDex 1.50Beta5
#
DISCID=8b0cc90c
DTITLE=GUNIW TOOLS - GUNIW TOOLS LIVE SPARKY
DYEAR=1998
DGENRE=Rock
TTITLE0=CHROMIUN
TTITLE1=It’s usual
TTITLE2=Fancy Pink
TTITLE3=HANDS
TTITLE4=香風積
TTITLE5=SOUP
TTITLE6=Stupid Person
TTITLE7=DISTORTION
TTITLE8=Billy what wild cool night
TTITLE9=Plenty of flour
TTITLE10=Living Hairspring
TTITLE11=真心求める自己愛者
EXTD=
EXTT0=
EXTT1=
EXTT2=
EXTT3=
EXTT4=
EXTT5=
EXTT6=
EXTT7=
EXTT8=
EXTT9=
EXTT10=
EXTT11=
PLAYORDER=
